<svg xmlns="http://www.w3.org/2000/svg" viewBox="0 0 111.98 85.61"><defs><style>.cls-1{fill:#f4f4f4;}</style></defs><g id="Layer_2" data-name="Layer 2"><g id="Layer_1-2" data-name="Layer 1"><path class="cls-1" d="M21.58,49.29H21a1.56,1.56,0,0,0-.46.1,1,1,0,0,0-.37.24,1.75,1.75,0,0,0-.32.46L14,61.61c-.22.4-.42.81-.62,1.25s-.37.89-.55,1.35c-.18-.45-.36-.89-.56-1.32s-.39-.84-.6-1.23L5.79,50.1a2,2,0,0,0-.32-.46,1.07,1.07,0,0,0-.37-.24,1.63,1.63,0,0,0-.46-.1H0V72.07H4.66V59c0-.3,0-.64,0-1s0-.73-.08-1.11L10.6,68.62a2,2,0,0,0,.76.83,2.18,2.18,0,0,0,1.09.28h.72a2.14,2.14,0,0,0,1.08-.28,2,2,0,0,0,.76-.83L21.07,56.9A10.25,10.25,0,0,0,21,58c0,.36,0,.69,0,1v13.1h4.66V49.29Z"></path><path class="cls-1" d="M35.92,67.73a5,5,0,0,1-1.42,1.06,3.84,3.84,0,0,1-1.64.33,2.23,2.23,0,0,1-1.33-.34,1.33,1.33,0,0,1-.46-1.16,1.53,1.53,0,0,1,.21-.79,1.84,1.84,0,0,1,.76-.64,6,6,0,0,1,1.49-.47,18,18,0,0,1,2.39-.25Zm-7.85-8.11a2.28,2.28,0,0,0,.56.6,1.38,1.38,0,0,0,.85.25,2.24,2.24,0,0,0,1-.19,9.25,9.25,0,0,0,.83-.42,5.89,5.89,0,0,1,1-.42,4.33,4.33,0,0,1,1.41-.19,2.15,2.15,0,0,1,1.66.63,3,3,0,0,1,.59,2.06v.69a19.58,19.58,0,0,0-4.61.56,9.7,9.7,0,0,0-2.91,1.24,4.42,4.42,0,0,0-1.52,1.65,4,4,0,0,0-.44,1.77,5,5,0,0,0,.35,1.93,3.62,3.62,0,0,0,1,1.4,4,4,0,0,0,1.54.85,6.34,6.34,0,0,0,2,.29,7.72,7.72,0,0,0,1.51-.13,5.32,5.32,0,0,0,1.28-.41,7.14,7.14,0,0,0,1.17-.66,13.9,13.9,0,0,0,1.17-.91l.35.89a1.38,1.38,0,0,0,.58.78,2.22,2.22,0,0,0,1,.19h2.22V61.94a7.37,7.37,0,0,0-.43-2.57,6.06,6.06,0,0,0-1.26-2,5.74,5.74,0,0,0-2-1.33,7,7,0,0,0-2.65-.48,11.3,11.3,0,0,0-3.84.64,9.63,9.63,0,0,0-3.25,1.93ZM55.34,58a7.9,7.9,0,0,0-2.59-1.78,8.49,8.49,0,0,0-3.35-.61,8.88,8.88,0,0,0-3.5.64A7.06,7.06,0,0,0,43.37,58a7.41,7.41,0,0,0-1.55,2.64,10,10,0,0,0-.52,3.27,9.9,9.9,0,0,0,.6,3.57,7.81,7.81,0,0,0,1.63,2.64,7,7,0,0,0,2.37,1.63,7.27,7.27,0,0,0,2.84.56,14.42,14.42,0,0,0,1.71-.11,8.51,8.51,0,0,0,1.74-.43,7.55,7.55,0,0,0,3.28-2.24L54.06,67.8a1,1,0,0,0-.88-.42,1.12,1.12,0,0,0-.72.22l-.64.48a4,4,0,0,1-.83.47,3.51,3.51,0,0,1-1.34.21,2.9,2.9,0,0,1-2.48-1.25,6.1,6.1,0,0,1-.9-3.59,8.62,8.62,0,0,1,.21-2,4.13,4.13,0,0,1,.62-1.49,2.84,2.84,0,0,1,1.07-.94,3.36,3.36,0,0,1,1.54-.33,3.83,3.83,0,0,1,1.21.17,5.51,5.51,0,0,1,.84.39l.65.38a1.29,1.29,0,0,0,.65.17,1,1,0,0,0,.58-.15,3.46,3.46,0,0,0,.42-.43Zm8.79,9.73a5,5,0,0,1-1.42,1.06,3.84,3.84,0,0,1-1.64.33,2.23,2.23,0,0,1-1.33-.34,1.33,1.33,0,0,1-.46-1.16,1.53,1.53,0,0,1,.21-.79,1.84,1.84,0,0,1,.76-.64,6,6,0,0,1,1.49-.47,18,18,0,0,1,2.39-.25Zm-7.85-8.11a2.28,2.28,0,0,0,.56.6,1.38,1.38,0,0,0,.85.25,2.24,2.24,0,0,0,1-.19,9.25,9.25,0,0,0,.83-.42,5.89,5.89,0,0,1,1-.42,4.33,4.33,0,0,1,1.41-.19,2.15,2.15,0,0,1,1.66.63,3,3,0,0,1,.59,2.06v.69a19.58,19.58,0,0,0-4.61.56,9.7,9.7,0,0,0-2.91,1.24,4.42,4.42,0,0,0-1.52,1.65,4,4,0,0,0-.44,1.77A5,5,0,0,0,55,69.78a3.71,3.71,0,0,0,1,1.4,4.16,4.16,0,0,0,1.55.85,6.34,6.34,0,0,0,2,.29A7.72,7.72,0,0,0,61,72.19a5.32,5.32,0,0,0,1.28-.41,7.14,7.14,0,0,0,1.17-.66,13.9,13.9,0,0,0,1.17-.91l.35.89a1.38,1.38,0,0,0,.58.78,2.22,2.22,0,0,0,1,.19h2.22V61.94a7.37,7.37,0,0,0-.43-2.57,6.06,6.06,0,0,0-1.26-2,5.74,5.74,0,0,0-2-1.33,7,7,0,0,0-2.65-.48,11.2,11.2,0,0,0-3.83.64,9.72,9.72,0,0,0-3.27,1.93Z"></path><path class="cls-1" d="M78.72,67.73a5,5,0,0,1-1.42,1.06,3.86,3.86,0,0,1-1.65.33,2.27,2.27,0,0,1-1.33-.34,1.35,1.35,0,0,1-.45-1.16,1.53,1.53,0,0,1,.21-.79,1.84,1.84,0,0,1,.76-.64,6,6,0,0,1,1.49-.47,18,18,0,0,1,2.39-.25Zm-7.85-8.11a2.28,2.28,0,0,0,.56.6,1.38,1.38,0,0,0,.85.25,2.24,2.24,0,0,0,1-.19,9.25,9.25,0,0,0,.83-.42,5.55,5.55,0,0,1,1-.42,4.25,4.25,0,0,1,1.41-.19,2.15,2.15,0,0,1,1.66.63,3,3,0,0,1,.59,2.06v.69a19.58,19.58,0,0,0-4.61.56,9.7,9.7,0,0,0-2.91,1.24,4.42,4.42,0,0,0-1.52,1.65,4,4,0,0,0-.44,1.77,5,5,0,0,0,.35,1.93,3.71,3.71,0,0,0,1,1.4A4.19,4.19,0,0,0,72.1,72a6.45,6.45,0,0,0,2,.29,7.8,7.8,0,0,0,1.51-.13,5.47,5.47,0,0,0,1.28-.41,7.58,7.58,0,0,0,1.17-.66c.37-.26.76-.56,1.17-.91l.35.89a1.38,1.38,0,0,0,.58.78,2.22,2.22,0,0,0,1,.19h2.22V61.94A7.15,7.15,0,0,0,83,59.37a5.88,5.88,0,0,0-1.25-2,5.74,5.74,0,0,0-2-1.33,7,7,0,0,0-2.65-.48,11.3,11.3,0,0,0-3.84.64A9.77,9.77,0,0,0,70,58.11Z"></path><path class="cls-1" d="M96.37,57.7a6.81,6.81,0,0,0-1-.84A8.13,8.13,0,0,0,94,56.2a8.91,8.91,0,0,0-1.54-.44,9.4,9.4,0,0,0-1.69-.15A8.56,8.56,0,0,0,88,56a5.93,5.93,0,0,0-2,1.12,4.63,4.63,0,0,0-1.2,1.63,5.06,5.06,0,0,0-.4,2,4.84,4.84,0,0,0,.33,1.89A4.25,4.25,0,0,0,85.55,64a4.79,4.79,0,0,0,1.21.89,9.88,9.88,0,0,0,1.39.6q.7.25,1.38.45a9.93,9.93,0,0,1,1.21.42,2.64,2.64,0,0,1,.86.54,1,1,0,0,1,.33.8,1.14,1.14,0,0,1-.11.51,1.34,1.34,0,0,1-.34.46,1.86,1.86,0,0,1-.63.32,3.26,3.26,0,0,1-.95.11,4.12,4.12,0,0,1-1.32-.18,6.15,6.15,0,0,1-.92-.41l-.72-.41a1.61,1.61,0,0,0-.76-.18,1.37,1.37,0,0,0-.74.18,1.33,1.33,0,0,0-.48.49l-1.13,1.78a5.92,5.92,0,0,0,1.13.79,7.73,7.73,0,0,0,1.43.63,11.75,11.75,0,0,0,1.6.43,9.32,9.32,0,0,0,1.66.15,9.7,9.7,0,0,0,2.93-.4,5.92,5.92,0,0,0,2.14-1.15A4.59,4.59,0,0,0,96,69a5.53,5.53,0,0,0,.44-2.22,4.14,4.14,0,0,0-.32-1.69,3.71,3.71,0,0,0-.86-1.19,4.84,4.84,0,0,0-1.2-.83,11.92,11.92,0,0,0-1.38-.59c-.47-.16-.92-.32-1.37-.45s-.85-.28-1.21-.43a3,3,0,0,1-.85-.53,1,1,0,0,1-.32-.75,1.14,1.14,0,0,1,.49-1A2.38,2.38,0,0,1,90.87,59a3.94,3.94,0,0,1,1.14.15,9.24,9.24,0,0,1,.9.32l.74.33a1.89,1.89,0,0,0,.69.14,1.08,1.08,0,0,0,.54-.12,1.48,1.48,0,0,0,.4-.42Z"></path><path class="cls-1" d="M102.13,48.66H97.28V72.07h4.85V60.5a6.16,6.16,0,0,1,1.35-.91,3.33,3.33,0,0,1,1.5-.34,2,2,0,0,1,1.61.66,2.9,2.9,0,0,1,.54,1.86v10.3H112V61.77a8.15,8.15,0,0,0-.36-2.47,5.57,5.57,0,0,0-1.06-1.95,4.92,4.92,0,0,0-1.73-1.28,5.63,5.63,0,0,0-2.35-.46,5.89,5.89,0,0,0-2.45.46,7.94,7.94,0,0,0-1.9,1.21Z"></path><rect class="cls-1" x="0.86" y="76.13" width="2.2" height="9.38"></rect><path class="cls-1" d="M6.29,79.17a.47.47,0,0,0-.49-.34H4.56v6.68h2V80.74a2.36,2.36,0,0,1,.56-.37,1.31,1.31,0,0,1,.62-.14.81.81,0,0,1,.66.27,1.17,1.17,0,0,1,.23.76v4.25h2V81.26a3.29,3.29,0,0,0-.15-1,2.14,2.14,0,0,0-.44-.8,1.87,1.87,0,0,0-.71-.53,2.3,2.3,0,0,0-1-.19A2.57,2.57,0,0,0,7.25,79a1.76,1.76,0,0,0-.44.26,4.12,4.12,0,0,0-.4.33Z"></path><path class="cls-1" d="M16.49,78.83a.57.57,0,0,0-.34.1l-.19.25-1,3a10,10,0,0,0-.39,1.41c0-.23-.11-.46-.17-.69s-.13-.47-.21-.72l-.93-3-.2-.25a.61.61,0,0,0-.36-.1H11.06l2.6,6.68h1.82l2.6-6.68Z"></path><path class="cls-1" d="M20.18,81.37a1.68,1.68,0,0,1,.43-.94,1.17,1.17,0,0,1,.89-.32,1.15,1.15,0,0,1,.55.11.92.92,0,0,1,.36.28,1,1,0,0,1,.2.4,1.49,1.49,0,0,1,.07.47ZM24,82.53l.22,0,.14-.11.07-.23a1.84,1.84,0,0,0,0-.36,3.45,3.45,0,0,0-.22-1.29,2.84,2.84,0,0,0-.62-1,2.75,2.75,0,0,0-.95-.6,3.63,3.63,0,0,0-1.22-.2,3.57,3.57,0,0,0-1.38.26,3.12,3.12,0,0,0-1.7,1.77A3.56,3.56,0,0,0,18.15,82a4.11,4.11,0,0,0,.27,1.56,3.16,3.16,0,0,0,.73,1.12,3,3,0,0,0,1.08.68,3.81,3.81,0,0,0,1.32.23,6.09,6.09,0,0,0,.72,0,4.15,4.15,0,0,0,.76-.17,3.49,3.49,0,0,0,.73-.35,2.79,2.79,0,0,0,.67-.58l-.58-.71a.4.4,0,0,0-.36-.17l-.35.08-.36.19a3.24,3.24,0,0,1-.45.18,1.72,1.72,0,0,1-.6.09,1.51,1.51,0,0,1-1.06-.38,1.84,1.84,0,0,1-.51-1.21Zm6.16-2.94a2.48,2.48,0,0,0-.43-.34,3.06,3.06,0,0,0-.54-.28,5.38,5.38,0,0,0-.64-.18,4,4,0,0,0-.7-.06,3.68,3.68,0,0,0-1.16.17,2.45,2.45,0,0,0-.83.46,1.87,1.87,0,0,0-.49.67,2.12,2.12,0,0,0,0,1.59,1.86,1.86,0,0,0,.35.54,2.23,2.23,0,0,0,.5.37,4.7,4.7,0,0,0,.57.25l.58.18a4.86,4.86,0,0,1,.5.17,1.33,1.33,0,0,1,.35.23.42.42,0,0,1,.14.33l-.05.21-.14.18-.26.14a1.51,1.51,0,0,1-.39,0,1.75,1.75,0,0,1-.55-.07,2.7,2.7,0,0,1-.38-.17l-.3-.17L26,83.78a.59.59,0,0,0-.31.07l-.19.2-.47.74a3,3,0,0,0,.47.32,3.18,3.18,0,0,0,.59.26,6.36,6.36,0,0,0,.66.18,4,4,0,0,0,.68.06,4.13,4.13,0,0,0,1.22-.17A2.55,2.55,0,0,0,29.5,85a1.9,1.9,0,0,0,.54-.72,2.27,2.27,0,0,0,.18-.91,1.68,1.68,0,0,0-.13-.7,1.61,1.61,0,0,0-.35-.49,2.1,2.1,0,0,0-.5-.34q-.28-.14-.57-.24l-.57-.19a4.81,4.81,0,0,1-.5-.18,1.3,1.3,0,0,1-.35-.21.4.4,0,0,1-.13-.31.47.47,0,0,1,.2-.4,1,1,0,0,1,.59-.15,1.73,1.73,0,0,1,.47.06,2.61,2.61,0,0,1,.37.14l.31.13.28.06.22,0,.17-.18Zm4.45,5.87A2.72,2.72,0,0,0,35.5,85l-.61-1L34.78,84l-.15,0-.11,0-.1,0-.13.06-.19,0a.37.37,0,0,1-.32-.15.61.61,0,0,1-.12-.39V80.21h1.66V78.84H33.66v-2h-1a.4.4,0,0,0-.44.31l-.4,1.63L30.72,79v.78a.36.36,0,0,0,.11.29l.26.1h.57v3.45a2.24,2.24,0,0,0,.13.8,1.7,1.7,0,0,0,.38.62,1.6,1.6,0,0,0,.61.39,2.48,2.48,0,0,0,.85.14,3.41,3.41,0,0,0,1-.15m3.56.05V80.68a1.78,1.78,0,0,1,.46-.33,1.13,1.13,0,0,1,.51-.12.92.92,0,0,1,.67.23,1.13,1.13,0,0,1,.22.8v4.25h2V81.26a1,1,0,0,1,.27-.76.93.93,0,0,1,.68-.27c.59,0,.89.34.89,1v4.25h2V81.26a3.59,3.59,0,0,0-.15-1.07,2.33,2.33,0,0,0-.46-.8,2,2,0,0,0-.75-.49,2.87,2.87,0,0,0-1-.17,3.34,3.34,0,0,0-.62.06,2.73,2.73,0,0,0-.59.2,2.07,2.07,0,0,0-.53.36,1.93,1.93,0,0,0-.41.52,2,2,0,0,0-.6-.83,1.57,1.57,0,0,0-1-.31,2.23,2.23,0,0,0-.54.06,2.2,2.2,0,0,0-.45.17,2,2,0,0,0-.39.25l-.35.32-.11-.36a.47.47,0,0,0-.49-.34H36.19v6.68Zm10.67-4.14a1.68,1.68,0,0,1,.42-.94,1.19,1.19,0,0,1,.89-.32,1.15,1.15,0,0,1,.55.11,1,1,0,0,1,.37.28,1.16,1.16,0,0,1,.2.4,1.84,1.84,0,0,1,.06.47Zm3.83,1.16.23,0,.13-.11.07-.23a1.73,1.73,0,0,0,0-.36,3.45,3.45,0,0,0-.23-1.29,2.7,2.7,0,0,0-.62-1,2.66,2.66,0,0,0-.95-.6,3.61,3.61,0,0,0-1.21-.2,3.5,3.5,0,0,0-1.38.26,3.12,3.12,0,0,0-1,.72,3,3,0,0,0-.66,1.05A3.35,3.35,0,0,0,46.83,82a4.11,4.11,0,0,0,.27,1.56,3.16,3.16,0,0,0,.73,1.12,2.92,2.92,0,0,0,1.07.68,3.91,3.91,0,0,0,1.33.23,6.39,6.39,0,0,0,.72,0,4.05,4.05,0,0,0,.75-.17,3.83,3.83,0,0,0,.74-.35,3,3,0,0,0,.67-.58l-.59-.71a.4.4,0,0,0-.36-.17l-.34.08-.36.19A3.83,3.83,0,0,1,51,84a1.8,1.8,0,0,1-.6.09,1.54,1.54,0,0,1-1.07-.38,1.89,1.89,0,0,1-.51-1.21Z"></path><path class="cls-1" d="M55.88,79.17a.48.48,0,0,0-.5-.34H54.14v6.68h2V80.74a2.17,2.17,0,0,1,.56-.37,1.27,1.27,0,0,1,.61-.14.83.83,0,0,1,.67.27,1.17,1.17,0,0,1,.22.76v4.25h2V81.26a3.29,3.29,0,0,0-.15-1,2.29,2.29,0,0,0-.44-.8,1.83,1.83,0,0,0-.72-.53,2.27,2.27,0,0,0-1-.19,2.74,2.74,0,0,0-.59.06,2.35,2.35,0,0,0-.51.17,2,2,0,0,0-.45.26,4.12,4.12,0,0,0-.4.33Z"></path><path class="cls-1" d="M64.83,85.46A2.72,2.72,0,0,0,65.7,85l-.61-1L65,84l-.14,0-.12,0-.1,0-.13.06-.18,0a.37.37,0,0,1-.33-.15.6.6,0,0,1-.11-.39V80.21h1.66V78.84H63.87v-2h-1a.4.4,0,0,0-.44.31L62,78.83,60.92,79v.78a.4.4,0,0,0,.11.29l.27.1h.56v3.45a2.48,2.48,0,0,0,.13.8,1.7,1.7,0,0,0,.38.62,1.68,1.68,0,0,0,.61.39,2.48,2.48,0,0,0,.85.14,3.37,3.37,0,0,0,1-.15m7-1.69V76.13H69.61v9.38h5.67V83.77Zm4.41,1.74h2V78.83h-2Zm2.12-9a1.22,1.22,0,0,0-.66-.63,1.27,1.27,0,0,0-.47-.09,1.14,1.14,0,0,0-.46.09,1.25,1.25,0,0,0-.38.25,1.12,1.12,0,0,0-.26.38,1.17,1.17,0,0,0,0,.9,1.18,1.18,0,0,0,.26.37,1.25,1.25,0,0,0,.38.25,1.14,1.14,0,0,0,.46.09,1.27,1.27,0,0,0,.47-.09,1.3,1.3,0,0,0,.39-.25,1.41,1.41,0,0,0,.27-.37,1.17,1.17,0,0,0,0-.9m3.29,9V80.68a1.62,1.62,0,0,1,.46-.33,1.13,1.13,0,0,1,.51-.12.9.9,0,0,1,.66.23,1.12,1.12,0,0,1,.23.8v4.25h2V81.26a1,1,0,0,1,.27-.77.94.94,0,0,1,.67-.26c.6,0,.9.34.9,1v4.25h2V81.26a3.29,3.29,0,0,0-.16-1.07,2.16,2.16,0,0,0-.45-.8A2,2,0,0,0,88,78.9a3,3,0,0,0-1-.17,3.26,3.26,0,0,0-.62.06,3,3,0,0,0-.6.2,2.21,2.21,0,0,0-.52.36,1.93,1.93,0,0,0-.41.52,2,2,0,0,0-.6-.83,1.58,1.58,0,0,0-1-.31,2,2,0,0,0-1,.23,2,2,0,0,0-.39.25l-.35.32-.11-.36a.47.47,0,0,0-.49-.34H79.61v6.68Zm9,0h2V78.83h-2Zm2.11-9a1.22,1.22,0,0,0-.66-.63,1.27,1.27,0,0,0-.47-.09,1.14,1.14,0,0,0-.46.09,1.39,1.39,0,0,0-.38.25,1.12,1.12,0,0,0-.26.38,1.17,1.17,0,0,0,0,.9,1.18,1.18,0,0,0,.26.37,1.39,1.39,0,0,0,.38.25,1.14,1.14,0,0,0,.46.09,1.27,1.27,0,0,0,.47-.09,1.3,1.3,0,0,0,.39-.25,1.41,1.41,0,0,0,.27-.37,1.17,1.17,0,0,0,0-.9"></path><path class="cls-1" d="M97.45,85.46a2.72,2.72,0,0,0,.87-.43l-.61-1L97.6,84l-.15,0-.11,0-.1,0-.13.06-.19,0a.37.37,0,0,1-.32-.15.61.61,0,0,1-.12-.39V80.21h1.66V78.84H96.48v-2h-1a.4.4,0,0,0-.44.31l-.4,1.63L93.54,79v.78a.36.36,0,0,0,.11.29l.26.1h.57v3.45a2.28,2.28,0,0,0,.13.8,1.7,1.7,0,0,0,.38.62,1.6,1.6,0,0,0,.61.39,2.44,2.44,0,0,0,.85.14,3.41,3.41,0,0,0,1-.15"></path><path class="cls-1" d="M100.63,81.37a1.68,1.68,0,0,1,.43-.94,1.41,1.41,0,0,1,1.44-.21.92.92,0,0,1,.36.28,1.16,1.16,0,0,1,.2.4,1.84,1.84,0,0,1,.06.47Zm3.84,1.16.22,0,.14-.11.07-.23a3.21,3.21,0,0,0,0-.36,3.73,3.73,0,0,0-.22-1.3,2.89,2.89,0,0,0-.62-1,2.84,2.84,0,0,0-1-.6,3.67,3.67,0,0,0-1.22-.2,3.57,3.57,0,0,0-1.38.26,3.22,3.22,0,0,0-1,.72,3,3,0,0,0-.66,1.05A3.52,3.52,0,0,0,98.6,82a4.11,4.11,0,0,0,.27,1.56,3.16,3.16,0,0,0,.73,1.12,3,3,0,0,0,1.08.68,3.81,3.81,0,0,0,1.32.23,6.09,6.09,0,0,0,.72,0,4.05,4.05,0,0,0,.75-.17,3.57,3.57,0,0,0,.74-.35,3,3,0,0,0,.67-.58l-.58-.71a.4.4,0,0,0-.36-.17l-.35.08-.36.19a3.24,3.24,0,0,1-.45.18,1.8,1.8,0,0,1-.6.09,1.54,1.54,0,0,1-1.07-.38,1.94,1.94,0,0,1-.51-1.21Zm5.51.92-.26.27-.28.2-.33.12a2.34,2.34,0,0,1-.39,0,.92.92,0,0,1-.44-.1.84.84,0,0,1-.33-.32,2.13,2.13,0,0,1-.22-.58,4.52,4.52,0,0,1-.07-.89,4.19,4.19,0,0,1,.09-.93,2.06,2.06,0,0,1,.27-.63,1,1,0,0,1,.41-.35,1.19,1.19,0,0,1,.51-.11,1.45,1.45,0,0,1,.55.1,1.24,1.24,0,0,1,.49.35Zm0-7.58v3.38a2.37,2.37,0,0,0-.64-.4,2.28,2.28,0,0,0-.88-.15,2.52,2.52,0,0,0-1.17.27,2.67,2.67,0,0,0-.91.73,3.3,3.3,0,0,0-.58,1.1,4.45,4.45,0,0,0-.21,1.39,5.38,5.38,0,0,0,.18,1.45,3.67,3.67,0,0,0,.51,1.07,2.33,2.33,0,0,0,.77.67,2.13,2.13,0,0,0,1,.23,2.62,2.62,0,0,0,.64-.07,2.47,2.47,0,0,0,.54-.19,2.41,2.41,0,0,0,.48-.3,3.08,3.08,0,0,0,.42-.39l.15.51a.48.48,0,0,0,.49.34H112V75.87Z"></path><path class="cls-1" d="M39.63,17l-.3.25L55.89,36.71,72.78,17.14V7.3L56,26.72,39.24,7.2v9.94l.09.11.3-.25H40V9.28L56,27.9,72,9.37v7.48L55.89,35.53l-16-18.78-.29.25h0ZM55.89,37.59l.29-.25L39.06,17.21V6.7L56,26.44,73,6.8V17.21l0,0L55.6,37.33l.29.26.29-.25-.29.25.29.25,17.35-20.1.12-.14.09-.11V4.73L56,25.26,38.29,4.62V17.49l17.6,20.69.29-.34Z"></path><path class="cls-1" d="M39.59,36.61V37h8.59l-9-10.36V37h.39v-.39H40V28.7l6.52,7.53h-6.9v.38h0Zm9.84,1v-.39H39v-11L49.14,37.82l.29-.25v0l.29-.25L38.25,24.08V38h12l-.55-.63Z"></path><path class="cls-1" d="M64.73,36.57V37h8V26.59L63.89,37h.84v-.38l.29.25,7-8.15v7.51H64.73v.39l.29.25Zm8.62,1v-.38H63.48l9.49-11V37.52h.38v0h.39V24L61.81,37.9H73.74v-.38Z"></path><path class="cls-1" d="M35.31,42.7v.39H77.06V1H34.93V43.09h.38V42.7h.39v-41H76.29V42.32h-41v.38h0Zm42.32,1v-.39H34.74V.77h42.5V43.66h.39v0H78V0H34V44H78v-.38Z"></path></g></g></svg>