<svg version="1.1" id="Layer_1" xmlns="http://www.w3.org/2000/svg" xmlns:xlink="http://www.w3.org/1999/xlink" x="0px" y="0px"
	 width="100%" viewBox="0 0 309 191" enable-background="new 0 0 309 191" xml:space="preserve">
<path fill="#a8b49e" opacity="1.000000" stroke="none" 
	d="
M310.000000,119.000000 
	C310.000000,143.293259 310.000000,167.586502 310.000000,192.000000 
	C245.979156,192.000000 181.958237,192.000000 117.174995,191.677322 
	C116.879929,190.916931 117.273056,190.260773 117.825264,190.073380 
	C132.358185,185.141632 145.729797,177.872665 156.815475,167.392731 
	C168.371826,156.467819 174.661255,142.321198 174.878693,126.341583 
	C175.295654,95.697411 174.937988,65.043327 175.045593,34.393867 
	C175.071045,27.144266 175.823334,19.897095 175.842987,12.647722 
	C175.846191,11.459618 173.433548,9.050361 172.717957,9.253220 
	C156.429794,13.870687 140.222488,18.773405 123.303757,23.830860 
	C124.373016,25.270468 124.958649,26.813614 126.059921,27.419420 
	C133.315094,31.410467 135.122940,37.843105 135.049637,45.530800 
	C134.889236,62.353371 135.258179,79.183540 134.931824,96.001305 
	C134.560043,115.161194 134.128754,134.342087 132.841385,153.454453 
	C131.951172,166.670746 125.529839,177.357040 114.544762,185.217484 
	C112.252449,186.857742 110.825661,189.707581 109.000000,192.000000 
	C73.078911,192.000000 37.157818,192.000000 1.000000,192.000000 
	C1.000000,161.646179 1.000000,131.291748 1.313267,100.176559 
	C2.752597,102.148140 3.570776,105.063927 5.067286,107.575554 
	C8.432385,113.223267 11.303123,119.503883 15.855335,124.042061 
	C29.132284,137.278061 46.270737,139.621506 63.568920,136.474747 
	C84.191895,132.723175 97.256622,119.373077 102.965149,99.111008 
	C103.286583,97.970100 102.889824,96.626839 102.827332,95.377762 
	C101.549248,95.744896 99.843536,95.709167 99.059334,96.541580 
	C91.340111,104.735367 81.701340,107.200142 70.800644,107.083450 
	C58.846462,106.955490 50.179779,101.735817 45.100620,91.184113 
	C39.103390,78.725159 38.470203,65.450706 41.467514,52.130219 
	C44.354687,39.299191 50.954700,29.251953 64.236549,24.859110 
	C65.172668,24.549500 65.630257,22.793053 66.310364,21.709383 
	C66.067566,21.349527 65.824768,20.989672 65.581970,20.629814 
	C60.277653,21.751133 54.887402,22.569750 49.684105,24.046911 
	C28.746101,29.990988 12.785914,41.944481 4.016426,62.457001 
	C3.554657,63.537113 2.029893,64.162773 0.999999,65.000000 
	C1.000000,43.701153 1.000000,22.402304 1.000000,1.000000 
	C69.687531,1.000000 138.375107,1.000000 207.818970,1.291701 
	C207.920532,2.327549 207.383484,3.241192 206.593063,3.789814 
	C198.020279,9.740074 198.695068,24.073997 208.119522,28.428350 
	C211.615540,30.043610 215.892456,29.968719 219.922699,30.684027 
	C217.849289,38.871525 212.443588,44.251038 205.079346,48.030869 
	C203.771225,48.702290 202.690842,49.817398 201.505310,50.727638 
	C203.032028,51.838531 204.068649,52.185444 204.931961,51.934982 
	C214.691498,49.103561 223.063354,43.865456 229.386810,35.985077 
	C237.450317,25.936222 239.757690,10.239538 226.815704,2.116841 
	C226.692154,2.039299 226.930573,1.385023 227.000000,0.999999 
	C254.598114,1.000000 282.196228,1.000000 310.000000,1.000000 
	C310.000000,32.020592 310.000000,63.041637 309.699127,94.820557 
	C305.569763,90.013824 301.616302,84.626877 295.711487,80.935768 
	C287.932465,76.073120 280.223267,71.086174 272.652496,65.906471 
	C264.602417,60.398853 262.520782,48.401012 272.522034,44.086048 
	C273.295807,43.752213 273.670837,42.494190 274.231201,41.665722 
	C273.954895,41.278168 273.678589,40.890617 273.402283,40.503063 
	C268.599426,41.675037 263.489777,42.159206 259.048065,44.140671 
	C241.828720,51.822277 236.877396,64.404831 241.170700,80.922028 
	C243.420624,89.577934 250.767410,94.906685 257.578003,100.034996 
	C262.965271,104.091568 268.998901,107.280022 274.659576,110.985260 
	C286.451202,118.703598 286.211090,127.059883 274.183258,134.104126 
	C273.357422,134.587784 273.236237,136.274612 272.734772,137.534012 
	C274.495300,137.292725 275.558289,137.096863 276.630127,137.007812 
	C289.187531,135.964523 300.572021,132.811096 307.123871,120.556816 
	C307.552765,119.754608 309.017242,119.506073 310.000000,119.000000 
M102.810760,186.720657 
	C111.870071,181.325806 115.721550,171.780792 112.154724,163.563797 
	C108.405869,154.927444 99.446350,150.686462 90.309090,153.223175 
	C81.402832,155.695740 74.892532,167.271057 78.333969,175.716553 
	C82.991882,187.147415 89.373009,190.125793 102.810760,186.720657 
M101.999924,38.760880 
	C101.446945,28.168451 88.527634,22.209925 82.445000,23.153345 
	C70.117134,25.065401 65.796257,32.135460 66.277580,41.916851 
	C66.713905,50.783760 73.710197,58.814732 85.144798,58.040428 
	C94.303459,57.420242 101.981178,49.227596 101.999924,38.760880 
M250.971786,118.454491 
	C247.485657,112.765137 243.999512,107.075783 240.513382,101.386436 
	C240.009186,101.667908 239.504974,101.949379 239.000778,102.230850 
	C239.000778,110.033699 238.776810,117.846733 239.131180,125.633453 
	C239.244019,128.113022 240.307770,132.092850 241.938538,132.701614 
	C250.546005,135.914734 259.489746,138.142654 269.145538,136.631180 
	C263.079956,130.573090 257.279938,124.780212 250.971786,118.454491 
M304.593292,44.132515 
	C295.850372,42.824780 287.107483,41.517048 278.364563,40.209312 
	C278.163483,40.898140 277.962372,41.586964 277.761292,42.275791 
	C279.391785,43.237663 280.994781,44.250210 282.657318,45.153076 
	C292.520447,50.509418 297.019165,60.067448 301.841431,69.413353 
	C302.473877,70.639061 303.821259,71.495888 304.972321,72.659912 
	C304.972321,62.746418 304.972321,53.856312 304.593292,44.132515 
z"/>
<path fill="#a8b49e" opacity="1.000000" stroke="none" 
	d="
M109.444168,192.000000 
	C110.825661,189.707581 112.252449,186.857742 114.544762,185.217484 
	C125.529839,177.357040 131.951172,166.670746 132.841385,153.454453 
	C134.128754,134.342087 134.560043,115.161194 134.931824,96.001305 
	C135.258179,79.183540 134.889236,62.353371 135.049637,45.530800 
	C135.122940,37.843105 133.315094,31.410467 126.059921,27.419420 
	C124.958649,26.813614 124.373016,25.270468 123.303757,23.830860 
	C140.222488,18.773405 156.429794,13.870687 172.717957,9.253220 
	C173.433548,9.050361 175.846191,11.459618 175.842987,12.647722 
	C175.823334,19.897095 175.071045,27.144266 175.045593,34.393867 
	C174.937988,65.043327 175.295654,95.697411 174.878693,126.341583 
	C174.661255,142.321198 168.371826,156.467819 156.815475,167.392731 
	C145.729797,177.872665 132.358185,185.141632 117.825264,190.073380 
	C117.273056,190.260773 116.879929,190.916931 116.706337,191.677322 
	C114.629440,192.000000 112.258888,192.000000 109.444168,192.000000 
z"/>
<path fill="#a8b49e" opacity="1.000000" stroke="none" 
	d="
M0.999999,65.468658 
	C2.029893,64.162773 3.554657,63.537113 4.016426,62.457001 
	C12.785914,41.944481 28.746101,29.990988 49.684105,24.046911 
	C54.887402,22.569750 60.277653,21.751133 65.581970,20.629814 
	C65.824768,20.989672 66.067566,21.349527 66.310364,21.709383 
	C65.630257,22.793053 65.172668,24.549500 64.236549,24.859110 
	C50.954700,29.251953 44.354687,39.299191 41.467514,52.130219 
	C38.470203,65.450706 39.103390,78.725159 45.100620,91.184113 
	C50.179779,101.735817 58.846462,106.955490 70.800644,107.083450 
	C81.701340,107.200142 91.340111,104.735367 99.059334,96.541580 
	C99.843536,95.709167 101.549248,95.744896 102.827332,95.377762 
	C102.889824,96.626839 103.286583,97.970100 102.965149,99.111008 
	C97.256622,119.373077 84.191895,132.723175 63.568920,136.474747 
	C46.270737,139.621506 29.132284,137.278061 15.855335,124.042061 
	C11.303123,119.503883 8.432385,113.223267 5.067286,107.575554 
	C3.570776,105.063927 2.752597,102.148140 1.313267,99.707901 
	C1.000000,88.645775 1.000000,77.291542 0.999999,65.468658 
z"/>
<path fill="#a8b49e" opacity="1.000000" stroke="none" 
	d="
M310.000000,118.531364 
	C309.017242,119.506073 307.552765,119.754608 307.123871,120.556816 
	C300.572021,132.811096 289.187531,135.964523 276.630127,137.007812 
	C275.558289,137.096863 274.495300,137.292725 272.734772,137.534012 
	C273.236237,136.274612 273.357422,134.587784 274.183258,134.104126 
	C286.211090,127.059883 286.451202,118.703598 274.659576,110.985260 
	C268.998901,107.280022 262.965271,104.091568 257.578003,100.034996 
	C250.767410,94.906685 243.420624,89.577934 241.170700,80.922028 
	C236.877396,64.404831 241.828720,51.822277 259.048065,44.140671 
	C263.489777,42.159206 268.599426,41.675037 273.402283,40.503063 
	C273.678589,40.890617 273.954895,41.278168 274.231201,41.665722 
	C273.670837,42.494190 273.295807,43.752213 272.522034,44.086048 
	C262.520782,48.401012 264.602417,60.398853 272.652496,65.906471 
	C280.223267,71.086174 287.932465,76.073120 295.711487,80.935768 
	C301.616302,84.626877 305.569763,90.013824 309.699127,95.289215 
	C310.000000,102.687576 310.000000,110.375153 310.000000,118.531364 
z"/>
<path fill="#a8b49e" opacity="1.000000" stroke="none" 
	d="
M226.531708,0.999999 
	C226.930573,1.385023 226.692154,2.039299 226.815704,2.116841 
	C239.757690,10.239538 237.450317,25.936222 229.386810,35.985077 
	C223.063354,43.865456 214.691498,49.103561 204.931961,51.934982 
	C204.068649,52.185444 203.032028,51.838531 201.505310,50.727638 
	C202.690842,49.817398 203.771225,48.702290 205.079346,48.030869 
	C212.443588,44.251038 217.849289,38.871525 219.922699,30.684027 
	C215.892456,29.968719 211.615540,30.043610 208.119522,28.428350 
	C198.695068,24.073997 198.020279,9.740074 206.593063,3.789814 
	C207.383484,3.241192 207.920532,2.327549 208.287628,1.291701 
	C214.021149,1.000000 220.042297,1.000000 226.531708,0.999999 
z"/>
<path fill="#a8b49e" opacity="1.000000" stroke="none" 
	d="
M102.426987,186.860443 
	C89.373009,190.125793 82.991882,187.147415 78.333969,175.716553 
	C74.892532,167.271057 81.402832,155.695740 90.309090,153.223175 
	C99.446350,150.686462 108.405869,154.927444 112.154724,163.563797 
	C115.721550,171.780792 111.870071,181.325806 102.426987,186.860443 
z"/>
<path fill="#a8b49e" opacity="1.000000" stroke="none" 
	d="
M101.999962,39.197598 
	C101.981178,49.227596 94.303459,57.420242 85.144798,58.040428 
	C73.710197,58.814732 66.713905,50.783760 66.277580,41.916851 
	C65.796257,32.135460 70.117134,25.065401 82.445000,23.153345 
	C88.527634,22.209925 101.446945,28.168451 101.999962,39.197598 
z"/>
<path fill="#a8b49e" opacity="1.000000" stroke="none" 
	d="
M251.225861,118.720917 
	C257.279938,124.780212 263.079956,130.573090 269.145538,136.631180 
	C259.489746,138.142654 250.546005,135.914734 241.938538,132.701614 
	C240.307770,132.092850 239.244019,128.113022 239.131180,125.633453 
	C238.776810,117.846733 239.000778,110.033699 239.000778,102.230850 
	C239.504974,101.949379 240.009186,101.667908 240.513382,101.386436 
	C243.999512,107.075783 247.485657,112.765137 251.225861,118.720917 
z"/>
<path fill="#a8b49e" opacity="1.000000" stroke="none" 
	d="
M304.782806,44.549362 
	C304.972321,53.856312 304.972321,62.746418 304.972321,72.659912 
	C303.821259,71.495888 302.473877,70.639061 301.841431,69.413353 
	C297.019165,60.067448 292.520447,50.509418 282.657318,45.153076 
	C280.994781,44.250210 279.391785,43.237663 277.761292,42.275791 
	C277.962372,41.586964 278.163483,40.898140 278.364563,40.209312 
	C287.107483,41.517048 295.850372,42.824780 304.782806,44.549362 
z"/>
</svg>